<?xml version="1.0" encoding="utf-8"?>
<!-- Generator: Adobe Illustrator 25.2.3, SVG Export Plug-In . SVG Version: 6.00 Build 0)  -->
<svg version="1.1" id="Layer_1" xmlns="http://www.w3.org/2000/svg" xmlns:xlink="http://www.w3.org/1999/xlink" x="0px" y="0px"
	 viewBox="0 0 1000 1000" style="enable-background:new 0 0 1000 1000;" xml:space="preserve">
<style type="text/css">
	.st0{fill:url(#SVGID_1_);}
	.st1{filter:url(#Adobe_OpacityMaskFilter);}
	.st2{fill:#FFFFFF;}
	.st3{mask:url(#mask-7_2_);fill:url(#SVGID_2_);fill-opacity:0.21;}
	.st4{fill:#010101;}
	.st5{fill-rule:evenodd;clip-rule:evenodd;fill:#F6F6F6;}
	.st6{fill:#E2E2E2;}
</style>
<g>
	
		<linearGradient id="SVGID_1_" gradientUnits="userSpaceOnUse" x1="2.5161" y1="998.8942" x2="3.4546" y2="999.8306" gradientTransform="matrix(255.9542 0 0 -296.1383 -254.9542 296435.4062)">
		<stop  offset="0" style="stop-color:#108C7E"/>
		<stop  offset="0" style="stop-color:#0B8D80"/>
		<stop  offset="1" style="stop-color:#0D8D7F"/>
	</linearGradient>
	<path class="st0" d="M506.08,237.69c-135.4,0-245.17,107.13-245.17,239.28c0,132.15,109.77,239.28,245.17,239.28l0.52,90.08
		c125.97-71.57,245.78-167.09,245.78-329.36C752.39,344.82,641.49,237.69,506.08,237.69z"/>
	<g>
		<defs>
			<filter id="Adobe_OpacityMaskFilter" filterUnits="userSpaceOnUse" x="372.89" y="394.56" width="486.91" height="383.24">
				<feColorMatrix  type="matrix" values="1 0 0 0 0  0 1 0 0 0  0 0 1 0 0  0 0 0 1 0"/>
			</filter>
		</defs>
		<mask maskUnits="userSpaceOnUse" x="372.89" y="394.56" width="486.91" height="383.24" id="mask-7_2_">
			<g class="st1">
				<path id="path-6_2_" class="st2" d="M506.08,237.69c-135.4,0-245.17,107.13-245.17,239.28c0,132.15,109.77,239.28,245.17,239.28
					l0.52,90.08c125.97-71.57,245.78-167.09,245.78-329.36C752.39,344.82,641.49,237.69,506.08,237.69z"/>
			</g>
		</mask>
		
			<linearGradient id="SVGID_2_" gradientUnits="userSpaceOnUse" x1="2.8169" y1="998.9162" x2="3.8133" y2="997.8152" gradientTransform="matrix(253.5769 0 0 -199.5852 -194.2588 199867.4844)">
			<stop  offset="0" style="stop-color:#010101"/>
			<stop  offset="1" style="stop-color:#D8D9D8;stop-opacity:0"/>
		</linearGradient>
		<polygon class="st3" points="372.89,561.35 582.26,777.8 859.8,574.9 659.23,394.56 616.35,468.05 		"/>
	</g>
	<g>
		<g>
			<path id="path-9" class="st4" d="M367.64,483.67v65.74c0,17.36,14.2,31.56,31.56,31.56h163.25c17.36,0,31.56-14.2,31.56-31.56
				V507.9l64.63,64.63v-88.86H367.64z"/>
		</g>
		<g>
			<path id="path-9_1_" class="st5" d="M367.64,483.67v65.74c0,17.36,14.2,31.56,31.56,31.56h163.25c17.36,0,31.56-14.2,31.56-31.56
				V507.9l64.63,64.63v-88.86H367.64z"/>
		</g>
	</g>
	<path class="st6" d="M658.63,483.67v-89.11l-64.63,64.49v-41.13c0-17.36-14.2-31.56-31.56-31.56H399.19
		c-17.36,0-31.56,14.2-31.56,31.56v65.74H658.63z"/>
</g>
</svg>
